<svg xmlns="http://www.w3.org/2000/svg" xmlns:xlink="http://www.w3.org/1999/xlink" width="638pt" height="488" viewBox="0 0 638 366"><g id="graph0" class="graph" transform="scale(1 1) rotate(0) translate(4 362)"><title>G</title><polygon fill="#fff" stroke="transparent" points="-4 4 -4 -362 634 -362 634 4 -4 4"/><g id="clust1" class="cluster"><title>cluster_1</title><polygon fill="none" stroke="transparent" points="8 -8 8 -350 622 -350 622 -8 8 -8"/><text x="41.672" y="-318.8" fill="#000" font-family="Helvetica,sans-Serif" font-size="14" text-anchor="middle">Browser</text></g><g id="clust2" class="cluster"><title>cluster_2</title><polygon fill="#d3d3d3" stroke="transparent" points="16 -110 16 -304 356 -304 356 -110 16 -110"/><text x="58.556" y="-280" fill="#4d4d4d" font-family="Helvetica,sans-Serif" font-size="10" text-anchor="middle">Web Worker #1</text></g><g id="clust4" class="cluster"><title>cluster_3</title><polygon fill="#d3d3d3" stroke="transparent" points="16 -16 16 -102 356 -102 356 -16 16 -16"/><text x="58.556" y="-78" fill="#4d4d4d" font-family="Helvetica,sans-Serif" font-size="10" text-anchor="middle">Web Worker #2</text></g><g id="node1" class="node"><title>table1</title><polygon fill="#fff" stroke="#b3b3b3" points="96 -184 24 -184 24 -148 96 -148 96 -184"/><text x="60" y="-163.6" fill="#000" font-family="monospace" font-size="8" text-anchor="middle">table(csv)</text></g><g id="node3" class="node"><title>view1</title><polygon fill="#fff" stroke="#b3b3b3" points="348 -158 132 -158 132 -118 348 -118 348 -158"/><text x="140" y="-147.6" fill="#000" font-family="monospace" font-size="8" text-anchor="start">view({</text><text x="140" y="-139.6" fill="#000" font-family="monospace" font-size="8" text-anchor="start">row_pivot: [&quot;Category&quot;]</text><text x="140" y="-131.6" fill="#000" font-family="monospace" font-size="8" text-anchor="start">filter: [[&quot;State&quot;,&quot;==&quot;,&quot;Texas&quot;]]</text><text x="140" y="-123.6" fill="#000" font-family="monospace" font-size="8" text-anchor="start">})</text></g><g id="edge1" class="edge"><title>table1-&gt;view1</title><path fill="none" stroke="#7f7f7f" d="M96.4257,-160.3338C104.7747,-159.035 114.0908,-157.5859 123.8567,-156.0667"/><polygon fill="none" stroke="#7f7f7f" points="124.301 -158.831 131.775 -154.835 123.44 -153.298 124.301 -158.831"/></g><g id="node4" class="node"><title>view2</title><polygon fill="#fff" stroke="#b3b3b3" points="348 -212 132 -212 132 -176 348 -176 348 -212"/><text x="140" y="-199.6" fill="#000" font-family="monospace" font-size="8" text-anchor="start">view({</text><text x="140" y="-191.6" fill="#000" font-family="monospace" font-size="8" text-anchor="start">row_pivot: [&quot;Category&quot;,&quot;Sub-Category&quot;]</text><text x="140" y="-183.6" fill="#000" font-family="monospace" font-size="8" text-anchor="start">})</text></g><g id="edge2" class="edge"><title>table1-&gt;view2</title><path fill="none" stroke="#7f7f7f" d="M96.4257,-171.6662C104.7747,-172.965 114.0908,-174.4141 123.8567,-175.9333"/><polygon fill="none" stroke="#7f7f7f" points="123.44 -178.702 131.775 -177.165 124.301 -173.169 123.44 -178.702"/></g><g id="node2" class="node"><title>table2</title><polygon fill="#fff" stroke="#b3b3b3" points="96 -266 24 -266 24 -230 96 -230 96 -266"/><text x="60" y="-245.6" fill="#000" font-family="monospace" font-size="8" text-anchor="middle">table(json)</text></g><g id="node5" class="node"><title>view3</title><polygon fill="#fff" stroke="#b3b3b3" points="348 -266 132 -266 132 -230 348 -230 348 -266"/><text x="140" y="-245.6" fill="#000" font-family="monospace" font-size="8" text-anchor="start">view()</text></g><g id="edge3" class="edge"><title>table2-&gt;view3</title><path fill="none" stroke="#7f7f7f" d="M96.4257,-248C104.692,-248 113.9065,-248 123.5667,-248"/><polygon fill="none" stroke="#7f7f7f" points="123.775 -250.8 131.775 -248 123.775 -245.2 123.775 -250.8"/></g><g id="node8" class="node"><title>viewer1</title><polygon fill="#fff" stroke="#b3b3b3" points="614 -156 384 -156 384 -120 614 -120 614 -156"/><text x="392" y="-143.6" fill="#000" font-family="monospace" font-size="8" text-anchor="start">&lt;perspective-viewer</text><text x="392" y="-135.6" fill="#000" font-family="monospace" font-size="8" text-anchor="start">view=&quot;y_bar&quot; row-pivots=&apos;[&quot;Category&quot;]&apos;</text><text x="392" y="-127.6" fill="#000" font-family="monospace" font-size="8" text-anchor="start">filters=&apos;[[&quot;State&quot;,&quot;==&quot;,&quot;Texas&quot;]]&apos;&gt;</text></g><g id="edge5" class="edge"><title>view1-&gt;viewer1</title><path fill="none" stroke="#7f7f7f" d="M348.3386,-138C357.2535,-138 366.306,-138 375.3207,-138"/><polygon fill="none" stroke="#7f7f7f" points="375.584 -140.8 383.584 -138 375.584 -135.2 375.584 -140.8"/></g><g id="node9" class="node"><title>viewer2</title><polygon fill="#fff" stroke="#b3b3b3" points="614 -212 384 -212 384 -176 614 -176 614 -212"/><text x="392" y="-199.6" fill="#000" font-family="monospace" font-size="8" text-anchor="start">&lt;perspective-viewer</text><text x="392" y="-191.6" fill="#000" font-family="monospace" font-size="8" text-anchor="start">view=&quot;xy_scatter&quot;</text><text x="392" y="-183.6" fill="#000" font-family="monospace" font-size="8" text-anchor="start">row-pivots=&apos;[&quot;Category&quot;,&quot;Sub-Category&quot;]&apos;&gt;</text></g><g id="edge6" class="edge"><title>view2-&gt;viewer2</title><path fill="none" stroke="#7f7f7f" d="M348.3386,-194C357.2535,-194 366.306,-194 375.3207,-194"/><polygon fill="none" stroke="#7f7f7f" points="375.584 -196.8 383.584 -194 375.584 -191.2 375.584 -196.8"/></g><g id="node10" class="node"><title>viewer3</title><polygon fill="#fff" stroke="#b3b3b3" points="614 -266 384 -266 384 -230 614 -230 614 -266"/><text x="392" y="-249.6" fill="#000" font-family="monospace" font-size="8" text-anchor="start">&lt;perspective-viewer</text><text x="392" y="-241.6" fill="#000" font-family="monospace" font-size="8" text-anchor="start">view=&quot;grid&quot;&gt;</text></g><g id="edge7" class="edge"><title>view3-&gt;viewer3</title><path fill="none" stroke="#7f7f7f" d="M348.3386,-248C357.2535,-248 366.306,-248 375.3207,-248"/><polygon fill="none" stroke="#7f7f7f" points="375.584 -250.8 383.584 -248 375.584 -245.2 375.584 -250.8"/></g><g id="node6" class="node"><title>table3</title><polygon fill="#fff" stroke="#b3b3b3" points="96 -62 24 -62 24 -26 96 -26 96 -62"/><text x="60" y="-41.6" fill="#000" font-family="monospace" font-size="8" text-anchor="middle">table(arrow)</text></g><g id="node7" class="node"><title>view4</title><polygon fill="#fff" stroke="#b3b3b3" points="348 -64 132 -64 132 -24 348 -24 348 -64"/><text x="140" y="-53.6" fill="#000" font-family="monospace" font-size="8" text-anchor="start">view({</text><text x="140" y="-45.6" fill="#000" font-family="monospace" font-size="8" text-anchor="start">row_pivot: [&quot;State&quot;]</text><text x="140" y="-37.6" fill="#000" font-family="monospace" font-size="8" text-anchor="start">column_pivot: [&quot;Segment&quot;]</text><text x="140" y="-29.6" fill="#000" font-family="monospace" font-size="8" text-anchor="start">})</text></g><g id="edge4" class="edge"><title>table3-&gt;view4</title><path fill="none" stroke="#7f7f7f" d="M96.4257,-44C104.692,-44 113.9065,-44 123.5667,-44"/><polygon fill="none" stroke="#7f7f7f" points="123.775 -46.8 131.775 -44 123.775 -41.2 123.775 -46.8"/></g><g id="node11" class="node"><title>viewer4</title><polygon fill="#fff" stroke="#b3b3b3" points="614 -64 384 -64 384 -24 614 -24 614 -64"/><text x="392" y="-53.6" fill="#000" font-family="monospace" font-size="8" text-anchor="start">&lt;perspective-viewer</text><text x="392" y="-45.6" fill="#000" font-family="monospace" font-size="8" text-anchor="start">view=&quot;heatmap&quot;</text><text x="392" y="-37.6" fill="#000" font-family="monospace" font-size="8" text-anchor="start">row-pivots=&apos;[&quot;State&quot;]</text><text x="392" y="-29.6" fill="#000" font-family="monospace" font-size="8" text-anchor="start">column-pivots=&apos;[&quot;Segment&quot;]&apos;&gt;</text></g><g id="edge8" class="edge"><title>view4-&gt;viewer4</title><path fill="none" stroke="#7f7f7f" d="M348.3386,-44C357.2535,-44 366.306,-44 375.3207,-44"/><polygon fill="none" stroke="#7f7f7f" points="375.584 -46.8 383.584 -44 375.584 -41.2 375.584 -46.8"/></g></g></svg>